<svg id="Layer_1" data-name="Layer 1" xmlns="http://www.w3.org/2000/svg" viewBox="0 0 1570.38 1744.22"><defs><style>.cls-1{fill:#fefefe;}.cls-2{fill:#e0b1b1;}.cls-3{fill:#4327a8;}.cls-4{fill:#3bb96d;}.cls-5{fill:#d9f7e0;}.cls-6{fill:#48b66d;}.cls-7{fill:#29bd6b;}.cls-8{fill:#46b76b;}.cls-9{fill:#24be68;}.cls-10{fill:#2cbd6a;}.cls-11{fill:#28bc69;}.cls-12{fill:#2bbc69;}.cls-13{fill:#2cbc6b;}.cls-14{fill:#27bd6b;}.cls-15{fill:#26be66;}.cls-16{fill:#21c069;}</style></defs><path class="cls-1" d="M1454.17,1744.22c20.15-.73,39.42-2.72,58.07-8.71,17.59-5.65,34.31-12.94,46.92-27.1,9.2-10.33,13.51-22,10-36.22-4.59-18.5-15.67-32.94-28.36-46.19a226.37,226.37,0,0,0-69.06-49.24,94.68,94.68,0,0,0-27.57-8.3c-12.53-1.63-20.26,6-27.06,14.69-16.82,21.56-27.74,46.09-34.83,72.3-4.8,17.72-7.43,35.77-2.26,54,3.51,12.37,10.72,21.63,23,26.35C1419.71,1742.21,1437.27,1743.27,1454.17,1744.22Z"/><path class="cls-2" d="M1454.17,1744.22c-16.9-1-34.46-2-51.14-8.42-12.29-4.72-19.5-14-23-26.35-5.17-18.23-2.54-36.28,2.26-54,7.09-26.21,18-50.74,34.83-72.3,6.8-8.72,14.53-16.32,27.06-14.69a94.68,94.68,0,0,1,27.57,8.3A226.37,226.37,0,0,1,1540.8,1626c12.69,13.25,23.77,27.69,28.36,46.19,3.51,14.18-.8,25.89-10,36.22-12.61,14.16-29.33,21.45-46.92,27.1C1493.59,1741.5,1474.32,1743.49,1454.17,1744.22Z"/><g id="mPmQ6u"><path class="cls-1" d="M369,533.35h-1.22c-17.51-.87-35-.16-51.75,5.13-13,4.1-26.45,6.68-39.49,10.73-8.94,2.78-18.06,5.59-27.29,6.59-6.12.67-10.85,4-16.48,5.43A158.16,158.16,0,0,0,192,578.64c-7,4.1-13,9.58-20.53,12.88-14.37,6.3-28.09,14.09-39.94,24.27-12.42,10.66-24.86,21.34-37,32.37S70.89,671.08,59.11,682.6c-6.07,5.93-10.38,13.32-16.32,19.29-7.7,7.74-13.32,17-19.42,25.9A85.85,85.85,0,0,0,9.45,761.68c-.85,4.85-3.19,9.32-3.33,14.15-.18,5.88-1.39,11.6-2.27,17.32C1.7,807.29,0,821.42,0,835.73a15.33,15.33,0,0,0,.25,4c3.34,12,3.61,24.64,7,36.73A184.29,184.29,0,0,0,17.39,905c6,12.86,15.85,23.3,23.17,35.35A200.72,200.72,0,0,0,68.1,975.75a226.45,226.45,0,0,0,26.58,23.94c11.26,8.43,21.92,17.58,33.54,25.65,15.4,10.7,32.61,17.67,48.95,26.43,6,3.21,12.78,4.75,18.83,7.66,10.63,5.12,21.41,9.74,32.48,13.78,8,2.92,16,6.12,24.08,8.73,5.37,1.73,11.29,2,16.44,4.11a47.5,47.5,0,0,0,14.22,3.51c16.89,1.48,33.85.33,50.78.62a13.56,13.56,0,0,0,2.45-.24c10-1.57,19.9-3.74,29.93-4.6,14.68-1.26,29.21-3.9,43.53-6.68,13.17-2.56,26-7.6,39.13-11.07,7.34-1.94,14.59-4.27,21.89-6.38,9.32-2.69,18.87-4.74,27.89-8.18,7.64-2.92,14.36-8.31,22-11,11.35-4,22-9.45,33-14.19a59.24,59.24,0,0,0,12.68-7.83c5.16-4,10-8.42,15.15-12.45,6.48-5,13.22-9.91,18-17.2,4.42-6.8,8.4-13.91,13.18-20.46,7.28-10,14-20.37,18.48-31.82,4.57-11.71,9.94-23.14,13.39-35.28,3.13-11,6.92-21.91,9.23-33.09,2.15-10.46,4.86-20.8,6.32-31.47C661.9,826,664.09,814,663.9,801.6c-.15-9.16-.43-18.34.05-27.48.91-17.13-3.19-33.31-7.94-49.51S642.48,694,633.93,679.5c-7.9-13.35-16-26.64-26.56-38s-22.77-20.74-34-31.32c-15.07-14.25-33.3-23.43-51.42-32.63-14.92-7.57-28.15-18.22-44.15-23.77-7.63-2.64-15-6.4-22.77-8.23-8-1.88-16.53-2.79-24.35-4.83-15.64-4.08-31.43-4.19-47.22-5.27A95.9,95.9,0,0,1,369,533.35Z"/><path class="cls-3" d="M369,533.35a95.9,95.9,0,0,0,14.47,2.08c15.79,1.08,31.58,1.19,47.22,5.27,7.82,2,16.32,2.95,24.35,4.83,7.8,1.83,15.14,5.59,22.77,8.23,16,5.55,29.23,16.2,44.15,23.77,18.12,9.2,36.35,18.38,51.42,32.63,11.18,10.58,23.46,20,34,31.32s18.66,24.67,26.56,38c8.55,14.46,17.29,28.77,22.08,45.11S664.86,757,664,774.12c-.48,9.14-.2,18.32-.05,27.48.19,12.37-2,24.43-3.68,36.61-1.46,10.67-4.17,21-6.32,31.47-2.31,11.18-6.1,22.07-9.23,33.09-3.45,12.14-8.82,23.57-13.39,35.28-4.47,11.45-11.2,21.84-18.48,31.82-4.78,6.55-8.76,13.66-13.18,20.46-4.74,7.29-11.48,12.17-18,17.2-5.18,4-10,8.45-15.15,12.45a59.24,59.24,0,0,1-12.68,7.83c-11,4.74-21.62,10.17-33,14.19-7.68,2.72-14.4,8.11-22,11-9,3.44-18.57,5.49-27.89,8.18-7.3,2.11-14.55,4.44-21.89,6.38-13.13,3.47-26,8.51-39.13,11.07-14.32,2.78-28.85,5.42-43.53,6.68-10,.86-19.95,3-29.93,4.6a13.56,13.56,0,0,1-2.45.24c-16.93-.29-33.89.86-50.78-.62a47.5,47.5,0,0,1-14.22-3.51c-5.15-2.15-11.07-2.38-16.44-4.11-8.13-2.61-16.06-5.81-24.08-8.73-11.07-4-21.85-8.66-32.48-13.78-6.05-2.91-12.85-4.45-18.83-7.66-16.34-8.76-33.55-15.73-48.95-26.43-11.62-8.07-22.28-17.22-33.54-25.65A226.45,226.45,0,0,1,68.1,975.75a200.72,200.72,0,0,1-27.54-35.43C33.24,928.27,23.42,917.83,17.39,905A184.29,184.29,0,0,1,7.28,876.42c-3.41-12.09-3.68-24.69-7-36.73a15.33,15.33,0,0,1-.25-4c0-14.31,1.69-28.44,3.84-42.58.88-5.72,2.09-11.44,2.27-17.32.14-4.83,2.48-9.3,3.33-14.15a85.85,85.85,0,0,1,13.92-33.89c6.1-8.86,11.72-18.16,19.42-25.9,5.94-6,10.25-13.36,16.32-19.29,11.78-11.52,23.26-23.33,35.44-34.44s24.55-21.71,37-32.37c11.85-10.18,25.57-18,39.94-24.27,7.53-3.3,13.56-8.78,20.53-12.88a158.16,158.16,0,0,1,40.82-17.4c5.63-1.45,10.36-4.76,16.48-5.43,9.23-1,18.35-3.81,27.29-6.59,13-4.05,26.45-6.63,39.49-10.73,16.79-5.29,34.24-6,51.75-5.13l.44.71Z"/><path class="cls-1" d="M369,533.35l-.78.72-.44-.71Z"/></g><g id="_4WGIIg" data-name="4WGIIg"><path class="cls-4" d="M906,284.26,904.75,286a9.28,9.28,0,0,0-3.25,4.76l-.07.1a4.39,4.39,0,0,0-2.48,3.36.51.51,0,0,0-.31.55l-1,1.26V296c-3.28,2.87-5.63,6.5-8.12,10l-.81.94c-5.44,5.59-11.22,10.86-16.12,17l.26.25-.27-.24c-3.39,2.28-6.77,4.57-9.07,8.06a.74.74,0,0,0-.6.36,12.41,12.41,0,0,0-6,4.88l0,0c-5.62,3.17-10.62,7.21-15.73,11.08l-.19.1a18.3,18.3,0,0,0-7.25,4.6l0,0a25.2,25.2,0,0,0-8.94,5.13h0a65.1,65.1,0,0,0-14.7,7.14l-1.34.76c-7.62,2.82-15.28,5.55-22.85,8.49-5.41,2.09-11.28,2.72-16.49,5.39l-1.56.29-1,.15-1.89.4c-5,.66-10.13,1.19-15,2.63l-4,.21c-1.78-.45-3.42.13-5.06.67h-5l-3,0h-4l-8,0-25-4h-.11l-.9-.13-1.47-.26c-6.25-2.1-12.55-4.07-18.74-6.33-11.36-4.13-22-9.79-32.7-15.39h0a34.5,34.5,0,0,0-8.78-5.4l-1.71-1a8.52,8.52,0,0,0-4.6-3.32.91.91,0,0,0-.73-.36,37.26,37.26,0,0,0-9.22-6.84h0a9.7,9.7,0,0,0-5-3.93L610.31,336c-5-4.56-10-9.07-14.93-13.69-9.79-9.17-17.86-19.84-26.22-30.26h0l-9.94-17.21a.67.67,0,0,0-.3-.61c-2-4.92-3.91-9.85-5.92-14.75-4-9.73-5.45-20.13-8.07-30.22l-.06-2c-2.13-22.51.06-44.69,5-66.69,2.48-11,6.63-21.52,10-32.26.16-.48.33-1,.5-1.43a134,134,0,0,0,8.41-17.61,242.21,242.21,0,0,1,30.86-44C621.26,40.89,646,20.8,677.05,9.62,709.29-2,742.17-2.4,775.37,4.73,830.14,16.48,870.61,48,899.72,95c14.55,23.51,25.7,48.45,31,75.75,6.84,35.05,1.25,68.09-16,99.25a6,6,0,0,0-2.13,4l0,0-.84,1.2a.5.5,0,0,0-.2.57A24.74,24.74,0,0,0,906,284.26ZM768.92,9.35l.41.23-.41-.22c-.14-.46-.14-1.06-.44-1.37-1.79-1.81-4.05-1.91-6.35-1.42a1,1,0,0,0-.56,1.53c1.41,2,3.55,1,5.4,1.24A15.86,15.86,0,0,0,768.92,9.35Zm72,32c1.75-.55,3-.08,4.11,1.47,1.44,1.93,3.43,2,6.17.53-4.75-2.41-7.71-6-11.37-8.7a3.9,3.9,0,0,0-4.92-.29c-1-4.6-5.53-7.68-10.74-6.81,4.24,1.76,6,6.53,10.74,6.81,0,.65,0,1.31,0,2-1.71.16-3.36-1.88-5.13-.16a1.54,1.54,0,0,0-.2,2.21c1.35,1.75,2.86,3.18,5.36,3C836.93,41.23,838.92,41.34,840.91,41.34Zm-95.48-31c-2.65-2.63-4.54-1.78-6.23-1.93-9.5-.83-19.19,1.7-28.57-1.57-1.41-.49-2.26.39-2.45,1.7s.7,1.79,1.82,1.79C721.4,10.32,732.81,10.31,745.43,10.31ZM925.32,163.68c-2.57,4.64-1.34,8.93-.29,13.22a1.28,1.28,0,0,0,1.4,1.1c1.28-.15,1.37-1.2,1.42-2.22C928,171.81,928,167.88,925.32,163.68ZM776.54,371.18c-2.15.38-4.42.72-6.65,1.21a1.73,1.73,0,0,0-1.54,2.13,1.77,1.77,0,0,0,2.32,1.24c2.24-.45,4.51-.74,6.71-1.34,1.09-.3,3.25.28,3-1.66C780.09,371,778.12,371.21,776.54,371.18ZM594,83.91c-.31-1.34-1.45-3.24-2.19-2.74C590,82.36,588,83.86,588,86.46c0,1.23.51,2.6,1.83,2.43C592.6,88.54,593.09,86.05,594,83.91Zm271,236.3c-1.95,0-3.7.27-3.93,2.7-.16,1.75.92,2.37,2.46,2.25,2-.16,4.14-.39,4.27-3C867.82,320.25,866.28,320.25,864.92,320.21Zm16.94-13c0-1.46-.06-2.81-1.91-2.85-2-.05-3,1.08-3,3,0,1.38.06,2.71,1.9,2.76C880.85,310.15,881.75,309,881.86,307.17ZM613.5,331.41c-.69-1.57-.48-3.94-2.94-4a2.32,2.32,0,0,0-2.2,2.77c.17,1.84,1.6,2.81,3.43,2.94C612.89,333.18,613.8,332.85,613.5,331.41ZM874,313.32a42.42,42.42,0,0,0-4.64,4.57c-.55.7.65,1.3,1.54,1.24,2.82-.18,3.82-2.31,4.59-4.54C875.75,313.88,875.09,313.44,874,313.32Zm40.92-173.2c.95-.5,2.62-.57,2.47-2a3.82,3.82,0,0,0-3.23-3.33c-1.71-.21-1.22,1.58-1.27,2.62C912.84,138.81,912.91,140.22,914.94,140.12Z"/><path class="cls-5" d="M766.91,380.34l1-.15C767.66,380.74,767.33,380.87,766.91,380.34Z"/><path class="cls-6" d="M745.43,10.31c-12.62,0-24,0-35.43,0-1.12,0-2-.54-1.82-1.79s1-2.19,2.45-1.7c9.38,3.27,19.07.74,28.57,1.57C740.89,8.53,742.78,7.68,745.43,10.31Z"/><path class="cls-7" d="M834.92,36.32c0-.66,0-1.32,0-2h0a3.9,3.9,0,0,1,4.92.29c3.66,2.73,6.62,6.29,11.37,8.7-2.74,1.45-4.73,1.4-6.17-.53-1.16-1.55-2.36-2-4.11-1.47C841.21,36.93,837.55,37.24,834.92,36.32Z"/><path class="cls-8" d="M834.92,36.32c2.63.92,6.29.61,6,5-2,0-4-.11-6,0-2.5.18-4-1.25-5.36-3a1.54,1.54,0,0,1,.2-2.21C831.56,34.44,833.21,36.48,834.92,36.32Z"/><path class="cls-9" d="M925.32,163.68c2.67,4.2,2.7,8.13,2.53,12.1-.05,1-.14,2.07-1.42,2.22a1.28,1.28,0,0,1-1.4-1.1C924,172.61,922.75,168.32,925.32,163.68Z"/><path class="cls-10" d="M776.54,371.18c1.58,0,3.55-.21,3.81,1.58.28,1.94-1.88,1.36-3,1.66-2.2.6-4.47.89-6.71,1.34a1.77,1.77,0,0,1-2.32-1.24,1.73,1.73,0,0,1,1.54-2.13C772.12,371.9,774.39,371.56,776.54,371.18Z"/><path class="cls-11" d="M594,83.91c-.87,2.14-1.36,4.63-4.09,5-1.32.17-1.82-1.2-1.83-2.43,0-2.6,2-4.1,3.73-5.29C592.51,80.67,593.65,82.57,594,83.91Z"/><path class="cls-12" d="M834.9,34.35c-4.77-.28-6.5-5.05-10.74-6.81,5.21-.87,9.76,2.21,10.74,6.81Z"/><path class="cls-13" d="M864.92,320.21c1.36,0,2.9,0,2.8,1.91-.13,2.65-2.28,2.88-4.27,3-1.54.12-2.62-.5-2.46-2.25C861.22,320.48,863,320.18,864.92,320.21Z"/><path class="cls-14" d="M881.86,307.17c-.11,1.82-1,3-3,2.92-1.84,0-2-1.38-1.9-2.76.07-1.93,1-3.06,3-3C881.8,304.36,881.87,305.71,881.86,307.17Z"/><path class="cls-14" d="M613.5,331.42c.3,1.43-.61,1.76-1.71,1.68-1.83-.13-3.26-1.1-3.43-2.94a2.32,2.32,0,0,1,2.2-2.77C613,327.47,612.81,329.84,613.5,331.42Z"/><path class="cls-13" d="M874,313.32c1.07.12,1.73.56,1.49,1.27-.77,2.23-1.77,4.36-4.59,4.54-.89.06-2.09-.54-1.54-1.24A42.42,42.42,0,0,1,874,313.32Z"/><path class="cls-15" d="M914.94,140.12c-2,.1-2.1-1.31-2-2.67.05-1-.44-2.83,1.27-2.62a3.82,3.82,0,0,1,3.23,3.33C917.56,139.55,915.89,139.62,914.94,140.12Z"/><path class="cls-16" d="M768.92,9.35a15.86,15.86,0,0,1-1.95,0c-1.85-.21-4,.74-5.4-1.24a1,1,0,0,1,.56-1.53c2.3-.49,4.56-.39,6.35,1.42.3.31.3.91.44,1.37Z"/><path class="cls-16" d="M768.92,9.36l.41.22-.41-.23Z"/></g></svg>